<svg xmlns="http://www.w3.org/2000/svg" width="109" height="69" fill="none" viewBox="0 0 109 69">
  <path fill="#fff" d="M31.868 43.36H15.884L12.668 52h-2.352L22.7 19.072h2.4L37.436 52h-2.352l-3.216-8.64Zm-.672-1.824L23.9 21.904l-7.344 19.632h14.64Zm13.822-23.232V52h-2.16V18.304h2.16Zm19.654 9.808c-.736 0-1.387-.128-1.952-.384a3.188 3.188 0 0 1-1.312-1.072 2.82 2.82 0 0 1-.512-1.536h1.184c.053.544.293 1.024.72 1.44.427.405 1.05.608 1.872.608.757 0 1.355-.192 1.792-.576a1.9 1.9 0 0 0 .672-1.488c0-.48-.123-.864-.368-1.152a2.157 2.157 0 0 0-.912-.656c-.363-.15-.864-.31-1.504-.48-.747-.203-1.339-.4-1.776-.592a2.827 2.827 0 0 1-1.12-.896c-.31-.405-.464-.955-.464-1.648 0-.576.15-1.088.448-1.536.299-.459.72-.816 1.264-1.072.544-.256 1.168-.384 1.872-.384 1.035 0 1.867.256 2.496.768a2.818 2.818 0 0 1 1.104 1.952H66.96c-.075-.459-.325-.864-.752-1.216-.427-.363-1.003-.544-1.728-.544-.672 0-1.232.181-1.68.544-.448.352-.672.837-.672 1.456 0 .47.123.848.368 1.136.245.288.55.507.912.656.373.15.875.31 1.504.48.725.203 1.312.405 1.76.608.448.192.827.49 1.136.896.31.405.464.95.464 1.632a2.88 2.88 0 0 1-.416 1.488c-.277.47-.688.848-1.232 1.136-.544.288-1.195.432-1.952.432ZM76.98 16.816v.928h-3.104V28h-1.12V17.744h-3.12v-.928h7.344Zm2.84 0v7.04c0 1.11.262 1.93.785 2.464.533.533 1.258.8 2.176.8.917 0 1.632-.261 2.144-.784.522-.533.784-1.36.784-2.48v-7.04h1.12v7.024c0 1.419-.379 2.485-1.136 3.2-.747.715-1.723 1.072-2.928 1.072-1.206 0-2.187-.357-2.944-1.072-.747-.715-1.12-1.781-1.12-3.2v-7.024h1.12Zm12.819 0c1.237 0 2.299.224 3.184.672a4.692 4.692 0 0 1 2.032 1.936c.47.843.704 1.845.704 3.008 0 1.152-.235 2.15-.704 2.992a4.723 4.723 0 0 1-2.032 1.92c-.885.437-1.947.656-3.184.656h-3.312V16.816h3.312Zm0 10.256c1.557 0 2.741-.405 3.552-1.216.821-.821 1.232-1.963 1.232-3.424 0-1.472-.41-2.619-1.232-3.44-.81-.832-1.995-1.248-3.552-1.248h-2.192v9.328h2.192Zm15.377-10.256-3.584 6.832V28h-1.12v-4.352l-3.616-6.832h1.264l2.912 5.808 2.896-5.808h1.248ZM72.208 40.96V52h-1.12v-8.816L67.152 52h-.816L62.4 43.216V52h-1.12V40.96h1.184l4.272 9.568 4.272-9.568h1.2Zm9.02 8.384h-5.087L75.165 52H73.98l4.08-11.04h1.264L83.389 52h-1.184l-.976-2.656Zm-.335-.928-2.208-6.048-2.208 6.048h4.416Zm10.837-7.6v.928h-3.104V52h-1.12V41.744h-3.12v-.928h7.344Zm2.889.912v4.176h4.24v.928h-4.24v4.24h4.72V52h-5.84V40.8h5.84v.928h-4.72Z"/>
</svg>
