<svg xmlns="http://www.w3.org/2000/svg" width="109" height="69" fill="none" viewBox="0 0 109 69">
  <path fill="#fff" d="M33.831 42.688H17.127L13.575 52h-1.104L25 19.216h.96L38.44 52h-1.104l-3.504-9.312Zm-.336-.864L25.48 20.752l-8.016 21.072h16.032ZM44.9 18.208V52h-.96V18.208h.96Zm19.66 9.904c-.725 0-1.36-.128-1.904-.384-.544-.256-.97-.603-1.28-1.04a2.956 2.956 0 0 1-.512-1.456h.752c.085.587.357 1.11.816 1.568.47.459 1.179.688 2.128.688.555 0 1.035-.101 1.44-.304a2.3 2.3 0 0 0 .96-.832 2.13 2.13 0 0 0 .336-1.168c0-.544-.133-.976-.4-1.296a2.362 2.362 0 0 0-.976-.72 13.74 13.74 0 0 0-1.568-.512c-.725-.192-1.312-.384-1.76-.576a2.88 2.88 0 0 1-1.12-.88c-.299-.405-.448-.955-.448-1.648 0-.533.139-1.019.416-1.456.288-.448.693-.8 1.216-1.056s1.125-.384 1.808-.384c.992 0 1.792.245 2.4.736.608.49.97 1.093 1.088 1.808h-.768c-.064-.288-.208-.581-.432-.88-.213-.299-.523-.544-.928-.736-.395-.203-.87-.304-1.424-.304-.747 0-1.376.208-1.888.624-.512.405-.768.95-.768 1.632 0 .544.133.981.4 1.312.267.32.592.565.976.736.395.16.923.325 1.584.496.736.203 1.317.4 1.744.592.437.181.805.475 1.104.88.31.395.464.933.464 1.616 0 .501-.133.976-.4 1.424-.267.448-.661.816-1.184 1.104-.512.277-1.136.416-1.872.416Zm11.82-11.344v.608h-3.2V28h-.72V17.376h-3.2v-.608h7.12Zm2.37 0v7.024c0 1.27.287 2.203.863 2.8.576.587 1.36.88 2.352.88.982 0 1.755-.293 2.32-.88.566-.587.848-1.52.848-2.8v-7.024h.72v7.008c0 1.461-.352 2.55-1.056 3.264-.704.715-1.648 1.072-2.832 1.072s-2.138-.357-2.864-1.072c-.714-.725-1.072-1.813-1.072-3.264v-7.008h.72Zm12.808 0c1.898 0 3.36.496 4.384 1.488 1.034.992 1.552 2.373 1.552 4.144 0 1.77-.518 3.147-1.552 4.128-1.024.981-2.486 1.472-4.384 1.472h-3.152V16.768h3.152Zm0 10.624c1.696 0 2.986-.437 3.872-1.312.885-.885 1.328-2.112 1.328-3.68 0-1.579-.443-2.81-1.328-3.696-.886-.885-2.176-1.328-3.872-1.328h-2.432v10.016h2.432Zm15.041-10.624-3.536 6.688V28h-.72v-4.544l-3.568-6.688h.816l3.104 6.016 3.088-6.016h.816Zm-34.807 24.24V52h-.72v-9.488L66.848 52h-.576l-4.24-9.488V52h-.72V41.008h.768l4.48 10.048 4.48-10.048h.752Zm9.013 8.112h-5.328L74.405 52h-.784l4.128-10.976h.8L82.661 52h-.784l-1.072-2.88Zm-.224-.608-2.432-6.544-2.448 6.544h4.88Zm10.095-7.744v.608h-3.2V52h-.72V41.376h-3.2v-.608h7.12Zm2.434.608v4.688h4.48v.608h-4.48v4.72h4.96V52h-5.68V40.768h5.68v.608h-4.96Z"/>
</svg>
